
<svg xmlns="http://www.w3.org/2000/svg" version="1.1" xmlns:xlink="http://www.w3.org/1999/xlink" preserveAspectRatio="none" x="0px" y="0px" width="56px" height="64px" viewBox="0 0 56 64">
<defs>
<filter id="Filter_1" x="-20%" y="-20%" width="140%" height="140%" color-interpolation-filters="sRGB">
<feColorMatrix in="SourceGraphic" type="matrix" values="0 0 0 0 0.6 0 0 0 0 0.6 0 0 0 0 0.6 0 0 0 1 0" result="result1"/>
</filter>

<g id="Layer0_0_FILL">
<path fill="#999999" stroke="none" d="
M 54.95 15
Q 54.95 9.2 50.85 5.1 46.75 1 40.95 1 35.15 1 31.05 5.1 26.95 9.2 26.95 15 26.95 20.8 31.05 24.9 35.15 29 40.95 29 46.75 29 50.85 24.9 54.95 20.8 54.95 15 Z"/>
</g>

<g id="Symbol_8_0_Layer0_0_FILL">
<path fill="#000000" stroke="none" d="
M 166.2 14
L 165.65 13.1 42.2 13 42.2 9 41.2 8 41.2 6 40.2 5 40.15 3.6 37.95 1.25 36.2 1 35.65 0.1 5.2 0
Q 4.7 0.5 4.1 0.8 3.7 1 3.2 1
L 1.2 3 1.2 6
Q -0.55 5.85 0.2 8 0.25 8.2 0.3 8.45
L 1.2 9 1.3 10.45 4.8 13.95 28.2 14 28.3 16.45 29.2 17 29.2 20 30.2 21 30.2 25 31.2 26 31.2 30 32.2 31 32.2 35 33.2 36 33.2 40 34.2 41 34.2 44 35.2 45 35.2 49 36.2 50 36.2 53 37.2 54 37.2 57 38.2 58 38.2 62 39.2 63 39.2 67 40.2 68 40.2 72 41.2 73 41.2 77 42.2 78 42.2 81 43.2 82 43.2 86 44.2 87 44.2 90 45.2 91 45.2 94 46.2 95 46.2 99
Q 45.7 99.5 45.4 100.1 45.2 100.5 45.2 101 44.7 101.5 44.4 102.1 44.2 102.5 44.2 103 43.7 103.5 43.4 104.1 43.2 104.5 43.2 105 42.7 105.5 42.4 106.1 42.2 106.5 42.2 107
L 40.2 109 40.2 114 41.2 115 41.3 116.45 44.2 119
Q 45.2 119 46 119.4 46.2 119.5 46.2 120
L 41.2 126
Q 41.2 127 40.8 127.8 40.7 128 40.2 128
L 40.2 136 41.2 137 41.3 138.45 47.8 144.95 50.2 145 50.8 145.95 56.2 146 57.2 145 59.65 144.95 65.95 138.75 66.2 137 67.15 136.45 67.2 128 66.2 127 66.15 125.6 61.2 121 139.2 120
Q 138.7 120.5 138.1 120.8 137.7 121 137.2 121
L 134.2 124 134.2 126 132.2 128 132.2 135 133.2 136 133.3 137.45 134.2 138 134.3 139.45 138.45 143.75 140.2 144 140.8 144.95 143.2 145 143.8 145.95 148.2 146 149.2 145 151.2 145 152.2 144 153.65 143.95 156.95 140.75 157.2 139 158.15 138.45 158.2 137 159.15 136.45 159.2 128 158.2 127 158.15 125.6 156.2 124 155.95 122.25 154.2 122 153.2 120 155.65 118.95 159.15 115.45 159.15 109.6 155.65 106.1 153.2 106 152.65 105.1 59.2 104
Q 59.4 103.45 59.7 102.95 59.9 102.7 60.15 102.45
L 60.2 100 61.2 99 60.2 97 60.2 94
Q 60.7 93.5 61.25 93.05 61.4 92.95 61.65 92.95
L 62.2 92 68.2 92 69.2 91 75.2 91 76.2 90 84.2 90 85.2 89 93.2 89 94.2 88 102.2 88 103.2 87 111.2 87 112.2 86 120.2 86 121.2 85 129.2 85 130.2 84 139.2 83 144.2 83 145.2 82 153.2 82 154.2 81 162.2 81 163.2 80 168.65 79.95 171.95 76.75 172.2 75 173.15 74.45 173.2 20 172.2 19 172.15 17.6 171.2 17 170.95 15.25 169.2 15 168.65 14.1 166.2 14 Z"/>
</g>

<path id="Symbol_10_0_Layer0_0_1_STROKES" stroke="#CCCCCC" stroke-width="1" stroke-linejoin="round" stroke-linecap="round" fill="none" d="
M 67 33.5
Q 67 47.4 57.2 57.2 47.4 67 33.5 67 19.6 67 9.8 57.2 0 47.4 0 33.5 0 19.6 9.8 9.8 19.6 0 33.5 0 47.4 0 57.2 9.8 67 19.6 67 33.5 Z"/>
</defs>

<g transform="matrix( 1, 0, 0, 1, 0,0) ">
<use xlink:href="#Layer0_0_FILL"/>
</g>

<g transform="matrix( 0.6999969482421875, 0, 0, 0.6999969482421875, 1,15.8) ">
<g transform="matrix( 1, 0, 0, 1, 0,0) ">
<use filter="url(#Filter_1)" xlink:href="#Symbol_10_0_Layer0_0_1_STROKES"/>
</g>

<g transform="matrix( 0.180633544921875, 0, 0, 0.17999267578125, 17.4,21) ">
<g transform="matrix( 1, 0, 0, 1, 0,0) ">
<use filter="url(#Filter_1)" xlink:href="#Symbol_8_0_Layer0_0_FILL"/>
</g>
</g>
</g>
</svg>
