
<svg xmlns="http://www.w3.org/2000/svg" version="1.1" xmlns:xlink="http://www.w3.org/1999/xlink" preserveAspectRatio="none" x="0px" y="0px" width="620px" height="80px" viewBox="0 0 620 80">
<defs>
<radialGradient id="Gradient_1" gradientUnits="userSpaceOnUse" cx="0" cy="0" r="323.925" fx="0" fy="0" gradientTransform="matrix( 1, 0, 0, 0.1742687350466929, 311.05,-12.5) " spreadMethod="pad">
<stop  offset="0%" stop-color="#000000"/>

<stop  offset="100%" stop-color="#000000" stop-opacity="0"/>
</radialGradient>

<filter id="Filter_1" x="-20%" y="-20%" width="140%" height="140%" color-interpolation-filters="sRGB">
<feColorMatrix in="SourceGraphic" type="matrix" values="1 0 0 0 0 0 1 0 0 0 0 0 1 0 0 0 0 0 0.35 0" result="result1"/>
</filter>

<g id="Symbol_12_0_Layer0_0_FILL">
<path fill="url(#Gradient_1)" stroke="none" d="
M 536.25 26.75
Q 603.1 15.1 622 0
L 0 0
Q 18.9 15.1 85.75 26.75 179.05 43 311.05 43 443 43 536.25 26.75 Z"/>
</g>

<g id="Symbol_2_0_Layer1_0_FILL">
<path fill="#666666" stroke="none" d="
M 133.3 19
Q 134.3 17.1 134.45 15.9 134.6 14.75 134 14.35 133.35 14 132.1 14.35 130.8 14.8 129.05 16 123.6 20.4 120.2 24.35 115.2 30.8 113.75 33.5 112.2 32.55 109.95 33.05 108.5 33.4 107 34.35 105.25 35.5 103.5 37.45 102.0787109375 39.1486328125 101.3 40.75 97.857421875 43.775390625 95.8 45 94 46.1 92.85 46.05 91.45 45.9 91.6 44.45 91.75 42.95 93.5 40.75 95.75 37.95 96.45 35.8 97.2 33.45 95.9 32.65 95.2 32.2 93.9 32.5 92.85 32.75 91.45 33.5 88.85 35.05 87.1 37.05
L 89.75 32.1
Q 89.75 31.75 88.9 31.5 88 31.25 87.85 31.6 85.3453125 36.4330078125 82.6 41 79.7166015625 43.43984375 77.25 44.65 75 45.75 73.5 45.9 72 46.1 71.45 45.3 70.9 44.55 71.35 42.9 71.85 41.2 73.4 38.85
L 76.65 35.3 75.9 34.4
Q 75.1 33.85 74.7 34.05
L 73.45 35.35
Q 73.25 34.1 72.3 33.4 71.35 32.65 70.2 32.65 68.35 32.65 65.75 34.05 61.8 36.65 60.05 39.2 59.56328125 39.873828125 59.2 40.55 59.125 40.580078125 59.05 40.65
L 55.25 43.55 51.85 45.3
Q 48.85 46.55 46.75 45.95 44.8 45.4 44.5 43.55 44.2 41.55 45.95 38.95 47.25 37.1 49.55 35.4 51.55 33.85 52.7 33.6 54.1 33.2 54.45 34.3 54.75 35.4 53.45 36.5 52.8 37 53.25 37.75 53.75 38.45 54.1 38.2 56.4 36.45 56.85 34.65 57.1 33.5 56.35 32.75 55.6 32.05 54.15 31.95 52.65 31.85 50.85 32.5 48.85 33.25 46.95 34.8 44.85 36.5 43.7 38.2 42.65 39.75 42.3 41.25 39.2443359375 43.875390625 37.4 45 35.5 46.15 34.4 46.05 30.85 45.65 37.25 37.05 39.2 34.75 38.4 33.7 37.65 32.7 35.35 33.6
L 33.15 34.3 34.5 31.85
Q 34.9 30.75 34.35 30.1 33.85 29.5 32.85 29.5 31.8 29.55 30.95 30.3 29.95 31.15 29.6 32.6 29.15 34.6 30.7 35.4 27.9 39.05 25.3 41.2 25.253125 41.246875 25.2 41.3 22.0869140625 44.0619140625 20.3 45 16.55 46.8 14.5 46.6 12.65 46.4 12.3 44.75 14.2 43.85 20.8 38.3 22.7 36.1 23 34.4 23.25 32.8 22.1 32.3 20.9 31.75 18.8 32.6 16.45 33.6 13.85 35.95 11.5 38.1 10.55 40.6 10.421875 40.944140625 10.3 41.25 7.2859375 43.8806640625 5.45 45 3.65 46.1 2.45 46.05 1.1 45.9 0.85 44.55 0.5 42.85 2.7 40.35 4.75 37.95 5.3 35.65 5.85 33.65 4.95 32.9 4.3 32.3 3.25 32.35 2.25 32.4 0.9 33.05 -1.6 34.2 -4.1 36.65 -3.65 34.95 -3.9 33.85 -4.1 32.85 -4.85 32.5 -6.2 31.75 -7.9 32.75 -9.65 33.85 -13.1 37.25 -10.7 33.9 -10.65 33.35
L -11 32.4
Q -11.25 32.15 -11.6 32.05 -14.75 35.75 -20.15 44.8 -20.7 45.65 -20.15 46.55 -19.6 47.45 -18.9 46.55 -15.2 40.9 -8.2 35.15 -7 34.15 -6.3 34.6 -5.5 35.15 -6.95 37.8 -9.15 41.75 -11.9 45.9 -12.15 46.4 -11.6 46.65 -11.05 46.9 -10.65 46.65 -10.3 46.4 -7.35 42.65 -4.2 38.75 -2.85 37.55 -0.95 35.9 0.85 35.05 2.75 34.05 3.2 34.8 3.65 35.6 2.45 37.45
L 0.4 40.1
Q -1.05 42 -1.35 43.65 -1.6 45 -1.05 46.1 0.05 48 2.4 47.95 5.49375 47.8193359375 10 43.6 10.08125 44.4013671875 10.35 45.1 11.05 47 12.6 47.8 14.3 48.65 16.75 48.25 20.71171875 47.725 25.85 42.75 25.87890625 42.767578125 25.9 42.75 26.1296875 42.526171875 26.35 42.3 29.9443359375 38.7556640625 32.25 35.65
L 34.45 35.2
Q 35.6 34.9 35.8 35.1 36.3 35.6 34.15 38.05 32.5 39.95 31.75 41.8 31 43.55 31.1 44.9 31.2 46.3 32.05 47.1 32.9 47.9 34.35 47.95 37.188671875 48.08515625 42.15 43.4 42.3095703125 44.4720703125 42.85 45.45 43.85 47.1 45.85 47.7 47.8 48.3 50.45 47.9 53.953125 47.430078125 58.05 43.65 57.8763671875 44.69765625 58.05 45.6 58.45 48.15 60.55 48.45 62.3 48.75 63.9 47.9 65.9 46.8 69.35 43.2 68.65 45.65 69.95 47.2 71.25 48.7 73.8 48.25 76.6947265625 47.8365234375 80.15 45.15 79.9373046875 45.9244140625 80.3 46.65 80.75 47.55 81.4 46.95
L 84.05 42.55
Q 86.4 39.75 89.95 36.6 92.45 34.4 93.75 34.6 95 34.75 93.55 37 89.55 42 89.65 44.9 89.65 46.6 90.65 47.35 91.45 47.9 92.85 47.95 95.6365234375 48.0826171875 100.45 43.55 100.3220703125 44.7955078125 100.75 45.75 101.35 47.2 102.95 47.4 104.6 47.65 106.65 46.45 108 45.65 111.15 42.85 111.15 45.2 112.2 46.6 113.2 47.9 114.75 47.95 117.5791015625 48.0826171875 122.45 43.55 122.410546875 43.8330078125 122.4 44.1 122.3 46.4 123.65 47.65 125.05 48.9 127.2 48.4 128.35 48.15 129.6 47.35 130.85 46.55 132.15 45.25 135.2 42.1 136.65 39.25 137.9 36.65 137.65 34.75 137.4 32.95 135.85 32.2 134.35 31.5 132.05 32.2
L 129.75 33.25
Q 128.55 34.05 128.4 34.55 128.3 34.75 128.3 34.8 125.95 36.6 124.4 38.85 123.747265625 39.7775390625 123.3 40.7 119.837109375 43.7080078125 117.75 45 115.95 46.1 114.75 46.05 113.6 45.95 113.2 44.6 112.75 43.3 113.2 41 116.65 38 125.2 29.4 129.35 25 133.3 19
M 133.5 33.55
Q 134.95 33.45 135.5 34.45 136.05 35.55 135.3 37.55 134.5 39.75 132.1 42.65 130.5 44.65 129.05 45.55 127.85 46.4 126.7 46.5 125.75 46.55 125.15 45.75 124.45 44.9 124.6 43.5 124.75 41.9 126 40 127.4 37.8 130.2 35.5 130.4 35.25 130.2 34.95 131.95 33.65 133.5 33.55
M 65.55 36.4
Q 67.85 34.75 69.9 34.75 72.65 34.75 71.45 38.05
L 71.5 38.05 70.8 38.95
Q 64.4 46.95 61.1 46.1 59.9 45.8 60.2 43.95 60.55 42.25 62 40.1 63.55 37.85 65.55 36.4
M 31.5 34.35
Q 30.8 34.05 30.95 33.05 31.15 31.85 32.15 31.6 33.15 31.3 32.65 32.5
L 31.5 34.35
M 16 36.65
Q 17.7 35.2 19 34.55 20.2 33.95 20.65 34.2 21.1 34.5 20.55 35.5 19.9 36.55 18.3 38.2 15.85 40.5 12.4 42.4 12.8 40.95 13.75 39.4 14.75 37.85 16 36.65
M 128 19.1
Q 130.65 16.8 131.8 16.65 132.9 16.5 131.7 18.6 130.35 20.95 126.45 25.1 120.3 32.4 114.05 38.25 115.1 35.4 116.9 32.3 118.95 28.9 121.6 25.65 125 21.65 128 19.1
M 109.2 35.1
Q 110.5 34.4 111.35 34.55 112.35 34.65 112.7 35.8 111.55 38.5 111.25 40.85
L 107.6 43.8
Q 105.85 45.2 104.55 45.6 103.3 46 102.85 45.35 102.35 44.65 102.85 43.1 103.35 41.4 104.9 39.05 106.7 36.4 109.2 35.1 Z"/>
</g>

<g id="Symbol_2_0_Layer0_0_FILL">
<path fill="#FFFFFF" stroke="none" d="
M 132.3 18
Q 133.3 16.1 133.45 14.9 133.6 13.75 133 13.35 132.35 13 131.1 13.35 129.8 13.8 128.05 15 122.6 19.4 119.2 23.35 114.2 29.8 112.75 32.5 111.2 31.55 108.95 32.05 107.5 32.4 106 33.35 104.25 34.5 102.5 36.45 101.0787109375 38.1486328125 100.3 39.75 96.857421875 42.775390625 94.8 44 93 45.1 91.85 45.05 90.45 44.9 90.6 43.45 90.75 41.95 92.5 39.75 94.75 36.95 95.45 34.8 96.2 32.45 94.9 31.65 94.2 31.2 92.9 31.5 91.85 31.75 90.45 32.5 87.85 34.05 86.1 36.05
L 88.75 31.1
Q 88.75 30.75 87.9 30.5 87 30.25 86.85 30.6 84.3453125 35.4330078125 81.6 40 78.7166015625 42.43984375 76.25 43.65 74 44.75 72.5 44.9 71 45.1 70.45 44.3 69.9 43.55 70.35 41.9 70.85 40.2 72.4 37.85
L 75.65 34.3 74.9 33.4
Q 74.1 32.85 73.7 33.05
L 72.45 34.35
Q 72.25 33.1 71.3 32.4 70.35 31.65 69.2 31.65 67.35 31.65 64.75 33.05 60.8 35.65 59.05 38.2 58.56328125 38.873828125 58.2 39.55 58.125 39.580078125 58.05 39.65
L 54.25 42.55 50.85 44.3
Q 47.85 45.55 45.75 44.95 43.8 44.4 43.5 42.55 43.2 40.55 44.95 37.95 46.25 36.1 48.55 34.4 50.55 32.85 51.7 32.6 53.1 32.2 53.45 33.3 53.75 34.4 52.45 35.5 51.8 36 52.25 36.75 52.75 37.45 53.1 37.2 55.4 35.45 55.85 33.65 56.1 32.5 55.35 31.75 54.6 31.05 53.15 30.95 51.65 30.85 49.85 31.5 47.85 32.25 45.95 33.8 43.85 35.5 42.7 37.2 41.65 38.75 41.3 40.25 38.2443359375 42.875390625 36.4 44 34.5 45.15 33.4 45.05 29.85 44.65 36.25 36.05 38.2 33.75 37.4 32.7 36.65 31.7 34.35 32.6
L 32.15 33.3 33.5 30.85
Q 33.9 29.75 33.35 29.1 32.85 28.5 31.85 28.5 30.8 28.55 29.95 29.3 28.95 30.15 28.6 31.6 28.15 33.6 29.7 34.4 26.9 38.05 24.3 40.2 24.253125 40.246875 24.2 40.3 21.0869140625 43.0619140625 19.3 44 15.55 45.8 13.5 45.6 11.65 45.4 11.3 43.75 13.2 42.85 19.8 37.3 21.7 35.1 22 33.4 22.25 31.8 21.1 31.3 19.9 30.75 17.8 31.6 15.45 32.6 12.85 34.95 10.5 37.1 9.55 39.6 9.421875 39.944140625 9.3 40.25 6.2859375 42.8806640625 4.45 44 2.65 45.1 1.45 45.05 0.1 44.9 -0.15 43.55 -0.5 41.85 1.7 39.35 3.75 36.95 4.3 34.65 4.85 32.65 3.95 31.9 3.3 31.3 2.25 31.35 1.25 31.4 -0.1 32.05 -2.6 33.2 -5.1 35.65 -4.65 33.95 -4.9 32.85 -5.1 31.85 -5.85 31.5 -7.2 30.75 -8.9 31.75 -10.65 32.85 -14.1 36.25 -11.7 32.9 -11.65 32.35
L -12 31.4
Q -12.25 31.15 -12.6 31.05 -15.75 34.75 -21.15 43.8 -21.7 44.65 -21.15 45.55 -20.6 46.45 -19.9 45.55 -16.2 39.9 -9.2 34.15 -8 33.15 -7.3 33.6 -6.5 34.15 -7.95 36.8 -10.15 40.75 -12.9 44.9 -13.15 45.4 -12.6 45.65 -12.05 45.9 -11.65 45.65 -11.3 45.4 -8.35 41.65 -5.2 37.75 -3.85 36.55 -1.95 34.9 -0.15 34.05 1.75 33.05 2.2 33.8 2.65 34.6 1.45 36.45
L -0.6 39.1
Q -2.05 41 -2.35 42.65 -2.6 44 -2.05 45.1 -0.95 47 1.4 46.95 4.49375 46.8193359375 9 42.6 9.08125 43.4013671875 9.35 44.1 10.05 46 11.6 46.8 13.3 47.65 15.75 47.25 19.71171875 46.725 24.85 41.75 24.87890625 41.767578125 24.9 41.75 25.1296875 41.526171875 25.35 41.3 28.9443359375 37.7556640625 31.25 34.65
L 33.45 34.2
Q 34.6 33.9 34.8 34.1 35.3 34.6 33.15 37.05 31.5 38.95 30.75 40.8 30 42.55 30.1 43.9 30.2 45.3 31.05 46.1 31.9 46.9 33.35 46.95 36.188671875 47.08515625 41.15 42.4 41.3095703125 43.4720703125 41.85 44.45 42.85 46.1 44.85 46.7 46.8 47.3 49.45 46.9 52.953125 46.430078125 57.05 42.65 56.8763671875 43.69765625 57.05 44.6 57.45 47.15 59.55 47.45 61.3 47.75 62.9 46.9 64.9 45.8 68.35 42.2 67.65 44.65 68.95 46.2 70.25 47.7 72.8 47.25 75.6947265625 46.8365234375 79.15 44.15 78.9373046875 44.9244140625 79.3 45.65 79.75 46.55 80.4 45.95
L 83.05 41.55
Q 85.4 38.75 88.95 35.6 91.45 33.4 92.75 33.6 94 33.75 92.55 36 88.55 41 88.65 43.9 88.65 45.6 89.65 46.35 90.45 46.9 91.85 46.95 94.6365234375 47.0826171875 99.45 42.55 99.3220703125 43.7955078125 99.75 44.75 100.35 46.2 101.95 46.4 103.6 46.65 105.65 45.45 107 44.65 110.15 41.85 110.15 44.2 111.2 45.6 112.2 46.9 113.75 46.95 116.5791015625 47.0826171875 121.45 42.55 121.410546875 42.8330078125 121.4 43.1 121.3 45.4 122.65 46.65 124.05 47.9 126.2 47.4 127.35 47.15 128.6 46.35 129.85 45.55 131.15 44.25 134.2 41.1 135.65 38.25 136.9 35.65 136.65 33.75 136.4 31.95 134.85 31.2 133.35 30.5 131.05 31.2
L 128.75 32.25
Q 127.55 33.05 127.4 33.55 127.3 33.75 127.3 33.8 124.95 35.6 123.4 37.85 122.747265625 38.7775390625 122.3 39.7 118.837109375 42.7080078125 116.75 44 114.95 45.1 113.75 45.05 112.6 44.95 112.2 43.6 111.75 42.3 112.2 40 115.65 37 124.2 28.4 128.35 24 132.3 18
M 132.5 32.55
Q 133.95 32.45 134.5 33.45 135.05 34.55 134.3 36.55 133.5 38.75 131.1 41.65 129.5 43.65 128.05 44.55 126.85 45.4 125.7 45.5 124.75 45.55 124.15 44.75 123.45 43.9 123.6 42.5 123.75 40.9 125 39 126.4 36.8 129.2 34.5 129.4 34.25 129.2 33.95 130.95 32.65 132.5 32.55
M 127 18.1
Q 129.65 15.8 130.8 15.65 131.9 15.5 130.7 17.6 129.35 19.95 125.45 24.1 119.3 31.4 113.05 37.25 114.1 34.4 115.9 31.3 117.95 27.9 120.6 24.65 124 20.65 127 18.1
M 108.2 34.1
Q 109.5 33.4 110.35 33.55 111.35 33.65 111.7 34.8 110.55 37.5 110.25 39.85
L 106.6 42.8
Q 104.85 44.2 103.55 44.6 102.3 45 101.85 44.35 101.35 43.65 101.85 42.1 102.35 40.4 103.9 38.05 105.7 35.4 108.2 34.1
M 60.1 45.1
Q 58.9 44.8 59.2 42.95 59.55 41.25 61 39.1 62.55 36.85 64.55 35.4 66.85 33.75 68.9 33.75 71.65 33.75 70.45 37.05
L 70.5 37.05 69.8 37.95
Q 63.4 45.95 60.1 45.1
M 19.65 33.2
Q 20.1 33.5 19.55 34.5 18.9 35.55 17.3 37.2 14.85 39.5 11.4 41.4 11.8 39.95 12.75 38.4 13.75 36.85 15 35.65 16.7 34.2 18 33.55 19.2 32.95 19.65 33.2
M 31.65 31.5
L 30.5 33.35
Q 29.8 33.05 29.95 32.05 30.15 30.85 31.15 30.6 32.15 30.3 31.65 31.5 Z"/>
</g>
</defs>

<g transform="matrix( 0.9967803955078125, 0, 0, 1.16278076171875, 0,0) ">
<g transform="matrix( 1, 0, 0, 1, 0,0) ">
<use filter="url(#Filter_1)" xlink:href="#Symbol_12_0_Layer0_0_FILL"/>
</g>
</g>

<g transform="matrix( 1, 0, 0, 1, 252.2,0) ">
<g transform="matrix( 1, 0, 0, 1, 0,0) ">
<use xlink:href="#Symbol_2_0_Layer1_0_FILL"/>
</g>

<g transform="matrix( 1, 0, 0, 1, 0,0) ">
<use xlink:href="#Symbol_2_0_Layer0_0_FILL"/>
</g>
</g>
</svg>
