
<svg xmlns="http://www.w3.org/2000/svg" version="1.1" xmlns:xlink="http://www.w3.org/1999/xlink" preserveAspectRatio="none" x="0px" y="0px" width="60px" height="60px" viewBox="0 0 60 60">
<defs>
<g id="Symbol_22_0_Layer0_0_FILL">
<path fill="#666666" stroke="none" d="
M 12.85 5.05
Q 12.85 2.95 11.35 1.45 9.9 0 7.8 0 5.7 0 4.25 1.45 2.75 2.95 2.75 5.05
L 2.75 18.5
Q 2.75 20.6 4.25 22.05 5.7 23.5 7.8 23.5 9.9 23.5 11.35 22.05 12.85 20.6 12.85 18.5
L 12.85 5.05 Z"/>
</g>

<path id="Symbol_22_0_Layer0_0_1_STROKES" stroke="#666666" stroke-width="2" stroke-linejoin="round" stroke-linecap="round" fill="none" d="
M 0 35.8
L 7.8 35.8 7.8 26.55
Q 4.65 26.55 2.45 24.65 0.25 22.75 0.25 20
L 0.25 11.15
M 15.35 11.15
L 15.35 20
Q 15.35 22.75 13.15 24.65 10.95 26.55 7.8 26.55
M 7.8 35.8
L 15.65 35.8"/>
</defs>

<g transform="matrix( 1, 0, 0, 1, 22.2,12.1) ">
<g transform="matrix( 1, 0, 0, 1, 0,0) ">
<use xlink:href="#Symbol_22_0_Layer0_0_FILL"/>

<use xlink:href="#Symbol_22_0_Layer0_0_1_STROKES"/>
</g>
</g>
</svg>
